<?xml version="1.0" encoding="UTF-8" standalone="no"?>
<!-- Generated by IcoMoon.io -->

<svg
   xmlns:dc="http://purl.org/dc/elements/1.1/"
   xmlns:cc="http://creativecommons.org/ns#"
   xmlns:rdf="http://www.w3.org/1999/02/22-rdf-syntax-ns#"
   xmlns:svg="http://www.w3.org/2000/svg"
   xmlns="http://www.w3.org/2000/svg"
   xmlns:sodipodi="http://sodipodi.sourceforge.net/DTD/sodipodi-0.dtd"
   xmlns:inkscape="http://www.inkscape.org/namespaces/inkscape"
   version="1.1"
   width="30"
   height="30"
   viewBox="0 0 30 30"
   id="svg3633"
   inkscape:version="0.91 r13725"
   sodipodi:docname="reddit_white.svg">
  <metadata
     id="metadata3890">
    <rdf:RDF>
      <cc:Work
         rdf:about="">
        <dc:format>image/svg+xml</dc:format>
        <dc:type
           rdf:resource="http://purl.org/dc/dcmitype/StillImage" />
        <dc:title></dc:title>
      </cc:Work>
    </rdf:RDF>
  </metadata>
  <defs
     id="defs3888" />
  <sodipodi:namedview
     pagecolor="#ffffff"
     bordercolor="#666666"
     borderopacity="1"
     objecttolerance="10"
     gridtolerance="10"
     guidetolerance="10"
     inkscape:pageopacity="0"
     inkscape:pageshadow="2"
     inkscape:window-width="1129"
     inkscape:window-height="651"
     id="namedview3886"
     showgrid="false"
     inkscape:zoom="3.1466252"
     inkscape:cx="-49.887048"
     inkscape:cy="57.013745"
     inkscape:window-x="0"
     inkscape:window-y="0"
     inkscape:window-maximized="0"
     inkscape:current-layer="svg3633"
     fit-margin-top="0"
     fit-margin-left="0"
     fit-margin-right="0"
     fit-margin-bottom="0" />
  <path
     style="fill:#ffffff"
     inkscape:connector-curvature="0"
     id="path3768"
     d="M 18.667,18.334 C 17.748,18.334 17,17.587 17,16.667 17,15.747 17.748,15 18.667,15 c 0.919,0 1.667,0.747 1.667,1.667 0,0.92 -0.748,1.667 -1.667,1.667 z m 0.293,2.737 c -1.137,1.136 -3.317,1.224 -3.958,1.224 -0.641,0 -2.821,-0.088 -3.957,-1.225 -0.169,-0.169 -0.169,-0.442 0,-0.611 0.169,-0.169 0.443,-0.169 0.611,0 0.717,0.717 2.251,0.971 3.346,0.971 1.095,0 2.629,-0.254 3.348,-0.971 0.169,-0.169 0.442,-0.168 0.611,0.001 0.169,0.169 0.168,0.442 -10e-4,0.611 z M 9.667,16.667 C 9.667,15.748 10.415,15 11.334,15 12.253,15 13,15.747 13,16.667 c 0,0.919 -0.747,1.666 -1.666,1.666 -0.919,0 -1.667,-0.747 -1.667,-1.666 z M 25.664,15 c 0,-1.289 -1.045,-2.333 -2.333,-2.333 -0.629,0 -1.199,0.25 -1.618,0.655 -1.595,-1.151 -3.793,-1.895 -6.24,-1.98 l 1.063,-5.001 3.473,0.738 c 0.042,0.883 0.765,1.588 1.659,1.588 0.921,0 1.667,-0.747 1.667,-1.667 0,-0.92 -0.746,-1.667 -1.667,-1.667 -0.655,0 -1.215,0.381 -1.488,0.93 L 16.302,5.439 C 16.195,5.415 16.081,5.436 15.989,5.497 15.897,5.558 15.832,5.652 15.808,5.76 l -1.166,5.487 c -0.007,0.031 -10e-4,0.061 -10e-4,0.092 -2.491,0.065 -4.731,0.811 -6.351,1.977 -0.419,-0.402 -0.987,-0.65 -1.613,-0.65 -1.289,0 -2.333,1.045 -2.333,2.333 0,0.948 0.566,1.762 1.379,2.127 -0.036,0.232 -0.056,0.467 -0.056,0.706 0,3.589 4.179,6.5 9.333,6.5 5.154,0 9.333,-2.911 9.333,-6.5 0,-0.237 -0.019,-0.471 -0.055,-0.701 0.817,-0.363 1.388,-1.181 1.388,-2.132 z" />
</svg>
